/* XPM */
static char *result[] = {
/* columns rows colors chars-per-pixel */
"32 32 5 1 ",
"  c black",
". c #4F2C14",
"X c #885B39",
"o c #D78244",
"O c None",
/* pixels */
"OOOOOOOOOOOOOOOOOOOOOOOOOOOOOOOO",
"OOOOOOOOOOOOOOOOOOOOOOOOOOOOOOOO",
"OOOOOOOOOOOOOOOOOOOOOOOOOOOOOOOO",
"OOOOOOOOOOOOOOOOOOOOOOOOOOOOOOOO",
"OOOOOOOOOOOOOOOOOOOOOOOOOOOOOOOO",
"OOOOOOOOOOOOOOOOOOOOOOOOOOOOOOOO",
"OOOOOOOOOOOO   OO   OOOOOOOOOOOO",
"OOOOOOOOOOOO X OO X OOOOOOOOOOOO",
"OOOOOOOOOOOO X    X OOOOOOOOOOOO",
"OOOOOOOOOOOO oooooo OOOOOOOOOOOO",
"OOOOOOOOOOOO oooooo OOOOOOOOOOOO",
"OOOOOOOOOOOO oooooo OOOOOOOOOOOO",
"OOOOOOOOOOOO oooooo OOOOOOOOOOOO",
"OOOOOOOOOOOO        OOOOOOOOOOOO",
"OOOOOOOOOOO  oooooo  OOOOOOOOOOO",
"OOOOOOOOOOO oooooooo OOOOOOOOOOO",
"OOOOOOOOOOO oooooooo OOOOOOOOOOO",
"OOOOOOOOOOO XooooooX OOOOOOOOOOO",
"OOOOOOOOOOO oooooooo OOOOOOOOOOO",
"OOOOOOOOOOO .oooooo. OOOOOOOOOOO",
"OOOOOOOOOOO ..    .. OOOOOOOOOOO",
"OOOOOOOOOOO ..    .. OOOOOOOOOOO",
"OOOOOOOOOOO  .  O .. OOOOOOOOOOO",
"OOOOOOOOOOOO   OO .. OOOOOOOOOOO",
"OOOOOOOOOOOO   OO .  OOOOOOOOOOO",
"OOOOOOOOOOOOOOOOO   OOOOOOOOOOOO",
"OOOOOOOOOOOOOOOOOOOOOOOOOOOOOOOO",
"OOOOOOOOOOOOOOOOOOOOOOOOOOOOOOOO",
"OOOOOOOOOOOOOOOOOOOOOOOOOOOOOOOO",
"OOOOOOOOOOOOOOOOOOOOOOOOOOOOOOOO",
"OOOOOOOOOOOOOOOOOOOOOOOOOOOOOOOO",
"OOOOOOOOOOOOOOOOOOOOOOOOOOOOOOOO"
};
