/* XPM */
static char *result[] = {
/* columns rows colors chars-per-pixel */
"32 32 5 1 ",
"  c black",
". c #4F2C14",
"X c #885B39",
"o c #D78244",
"O c None",
/* pixels */
"OOOOOOOOOOOOOOOOOOOOOOOOOOOOOOOO",
"OOOOOOOOOOOOOOOOOOOOOOOOOOOOOOOO",
"OOOOOOOOOOOOOOOOOOOOOOOOOOOOOOOO",
"OOOOOOOOOOOOOOOOOOOOOOOOOOOOOOOO",
"OOOOOOOOOOOOOOOOOOOOOOOOOOOOOOOO",
"OOOOOOOOOOOOOOOOOOOOOOOOOOOOOOOO",
"OOOOOOOOOOOO   OO   OOOOOOOOOOOO",
"OOOOOOOOOOOO . OO . OOOOOOOOOOOO",
"OOOOOOOOOOOO .    . OOOOOOOOOOOO",
"OOOOOOOOOOOO ooXXoo OOOOOOOOOOOO",
"OOOOOOOOOOOO  XXXX  OOOOOOOOOOOO",
"OOOOOOOOOOOO oXXXXo OOOOOOOOOOOO",
"OOOOOOOOOOOO oXXXXo OOOOOOOOOOOO",
"OOOOOOOOOOOO        OOOOOOOOOOOO",
"OOOOOOOOOOO  oooooo  OOOOOOOOOOO",
"OOOOOOOOOOO oooooooo OOOOOOOOOOO",
"OOOOOOOOOOO oooooooo OOOOOOOOOOO",
"OOOOOOOOOOO oooooooo OOOOOOOOOOO",
"OOOOOOOOOOO oooooooo OOOOOOOOOOO",
"OOOOOOOOOOO .oooooo. OOOOOOOOOOO",
"OOOOOOOOOOO ..    .. OOOOOOOOOOO",
"OOOOOOOOOOO ..    .. OOOOOOOOOOO",
"OOOOOOOOOOO  .  O .. OOOOOOOOOOO",
"OOOOOOOOOOOO   OO .. OOOOOOOOOOO",
"OOOOOOOOOOOO   OO .  OOOOOOOOOOO",
"OOOOOOOOOOOOOOOOO   OOOOOOOOOOOO",
"OOOOOOOOOOOOOOOOOOOOOOOOOOOOOOOO",
"OOOOOOOOOOOOOOOOOOOOOOOOOOOOOOOO",
"OOOOOOOOOOOOOOOOOOOOOOOOOOOOOOOO",
"OOOOOOOOOOOOOOOOOOOOOOOOOOOOOOOO",
"OOOOOOOOOOOOOOOOOOOOOOOOOOOOOOOO",
"OOOOOOOOOOOOOOOOOOOOOOOOOOOOOOOO"
};
