/* XPM */
static char *result[] = {
/* columns rows colors chars-per-pixel */
"32 32 5 1 ",
"  c black",
". c #4F2C14",
"X c #885B39",
"o c #D78244",
"O c None",
/* pixels */
"OOOOOOOOOOOOOOOOOOOOOOOOOOOOOOOO",
"OOOOOOOOOOOOOOOOOOOOOOOOOOOOOOOO",
"OOOOOOOOOOOOOOOOOOOOOOOOOOOOOOOO",
"OOOOOOOOOOOOOOOOOOOOOOOOOOOOOOOO",
"OOOOOOOOOOOOOOOOOOOOOOOOOOOOOOOO",
"OOOOOOOOOOOOOOOOOOOOOOOOOOOOOOOO",
"OOOOOOOOOOOO    OOOOOOOOOOOOOOOO",
"OOOOOOOOOOOO .. OOOOOOOOOOOOOOOO",
"OOOOO        .X OOOOOOOOOOOOOOOO",
"OOOO  XXooooooX  OOOOOOOOOOOOOOO",
"OOOO XXXoo  oooo  OOOOOOOOOOOOOO",
"OOOO XXoooooooooo  OOOOOOOOOOOOO",
"OOOO Xoooooooooooo       OOOOOOO",
"OOOO Xoooooooooooooooooo  OOOOOO",
"OOOO        ooooooooooooo OOOOOO",
"OOOOOOOOOOO  oooooooXXooo OOOOOO",
"OOOOOOOOOOOO oooooooooooo OOOOOO",
"OOOOOOOOOOOO oooooXXooXXo OOOOOO",
"OOOOOOOOOOOO  ooooooooooo  OOOOO",
"OOOOOOOOOOOOO oooooooooooo OOOOO",
"OOOOOOOOOOOOO .oo    oooo.  OOOO",
"OOOOOOOOOOOO  ..   O   o... OOOO",
"OOOOOOOOOOOO ...   OO   ... OOOO",
"OOOOOOOOOOOO ..    O    ..  OOOO",
"OOOOOOOOOOOO .  O  O  O .. OOOOO",
"OOOOOOOOOOOO   OOOOOOOO    OOOOO",
"OOOOOOOOOOOOOOOOOOOOOOOOOOOOOOOO",
"OOOOOOOOOOOOOOOOOOOOOOOOOOOOOOOO",
"OOOOOOOOOOOOOOOOOOOOOOOOOOOOOOOO",
"OOOOOOOOOOOOOOOOOOOOOOOOOOOOOOOO",
"OOOOOOOOOOOOOOOOOOOOOOOOOOOOOOOO",
"OOOOOOOOOOOOOOOOOOOOOOOOOOOOOOOO"
};
