/* XPM */
static char *result[] = {
/* columns rows colors chars-per-pixel */
"32 32 5 1 ",
"  c black",
". c #4F2C14",
"X c #885B39",
"o c #D78244",
"O c None",
/* pixels */
"OOOOOOOOOOOOOOOOOOOOOOOOOOOOOOOO",
"OOOOOOOOOOOOOOOOOOOOOOOOOOOOOOOO",
"OOOOOOOOOOOOOOOOOOOOOOOOOOOOOOOO",
"OOOOOOOOOOOOOOOOOOOOOOOOOOOOOOOO",
"OOOOOOOOOOOOOOOOOOOOOOOOOOOOOOOO",
"OOOOOOOOOOOOOOOOOOOOOOOOOOOOOOOO",
"OOOOOOOOOOOOOOOO    OOOOOOOOOOOO",
"OOOOOOOOOOOOOOOO .. OOOOOOOOOOOO",
"OOOOOOOOOOOOOOOO X.        OOOOO",
"OOOOOOOOOOOOOOO  XooooooXX  OOOO",
"OOOOOOOOOOOOOO  oooo  ooXXX OOOO",
"OOOOOOOOOOOOO  ooooooooooXX OOOO",
"OOOOOOO       ooooooooooooX OOOO",
"OOOOOO  ooooooooooooooooooX OOOO",
"OOOOOO ooooooooooooo        OOOO",
"OOOOOO oooXXooooooo  OOOOOOOOOOO",
"OOOOOO oooooooooooo OOOOOOOOOOOO",
"OOOOOO oXXooXXooooo OOOOOOOOOOOO",
"OOOOO  ooooooooooo  OOOOOOOOOOOO",
"OOOOO oooooooooooo OOOOOOOOOOOOO",
"OOOO  .oooo    oo. OOOOOOOOOOOOO",
"OOOO ...o   O   ..  OOOOOOOOOOOO",
"OOOO ...   OO   ... OOOOOOOOOOOO",
"OOOO  ..    O    .. OOOOOOOOOOOO",
"OOOOO .. O  O  O  . OOOOOOOOOOOO",
"OOOOO    OOOOOOOO   OOOOOOOOOOOO",
"OOOOOOOOOOOOOOOOOOOOOOOOOOOOOOOO",
"OOOOOOOOOOOOOOOOOOOOOOOOOOOOOOOO",
"OOOOOOOOOOOOOOOOOOOOOOOOOOOOOOOO",
"OOOOOOOOOOOOOOOOOOOOOOOOOOOOOOOO",
"OOOOOOOOOOOOOOOOOOOOOOOOOOOOOOOO",
"OOOOOOOOOOOOOOOOOOOOOOOOOOOOOOOO"
};
