/* XPM */
static char *result[] = {
/* columns rows colors chars-per-pixel */
"32 32 6 1 ",
"  c black",
". c #4F2C14",
"X c #885B39",
"o c #D78244",
"O c #00D0EB",
"+ c None",
/* pixels */
"++++++++++++++++++++++++++++++++",
"++++++++++++++++++++++++++++++++",
"++++++++++++++++++++++++++++++++",
"++++++++++++++++++++++++++++++++",
"++++++++++++++++++++++++++++++++",
"++++++++++++++++++++++++++++++++",
"++++++++++++++++++++++++++++++++",
"++++++++++++++  ++++++++++++++++",
"+++++++++++++  . +++++++++++++++",
"+++++++++     .. +++++++++++++++",
"++++++++ XoooooX +++++++++++++++",
"+++++++ XXo  ooo +++++++++++++++",
"+++++++ XoooOooo +++++++++++++++",
"+++++++ ooooooooo ++++++++++++++",
"++++++++    ooooo  +++++++++++++",
"+++++++++++ oooooo  ++++++++++++",
"+++++++++++ ooooooo   ++++++++++",
"+++++++++++ ooooooooo  +++++++++",
"+++++++++++ oooooooooo  ++++++++",
"+++++++++++  oooooooXXo  +++++++",
"++++++++++++ oo oXXooooo +++++++",
"++++++++++++ .. oooooooo +++++++",
"++++++++++++ .. ooooXXoo +++++++",
"++++++++++++ .. ......o ++++++++",
"+++++++++++++          +++++++++",
"++++++++++++++++++++++++++++++++",
"++++++++++++++++++++++++++++++++",
"++++++++++++++++++++++++++++++++",
"++++++++++++++++++++++++++++++++",
"++++++++++++++++++++++++++++++++",
"++++++++++++++++++++++++++++++++",
"++++++++++++++++++++++++++++++++"
};
