/* XPM */
static char *result[] = {
/* columns rows colors chars-per-pixel */
"32 32 51 1 ",
"  c black",
". c #523215",
"X c #543315",
"o c #543415",
"O c #563515",
"+ c #563615",
"@ c #573715",
"# c #583615",
"$ c #583715",
"% c #553815",
"& c #553816",
"* c #593B15",
"= c #583A16",
"- c #593A16",
"; c #593B16",
": c #593D16",
"> c #5A3D16",
", c #5B3D16",
"< c #5B3E16",
"1 c #5A3F17",
"2 c #5B3F17",
"3 c #5B4017",
"4 c #5C4017",
"5 c #5C4217",
"6 c #5C4317",
"7 c #5D4317",
"8 c #5D4417",
"9 c #5D4218",
"0 c #5C4318",
"q c #5D4318",
"w c #5D4319",
"e c #5D4418",
"r c #5E4419",
"t c #5E4519",
"y c #5F4519",
"u c #5F4619",
"i c #604519",
"p c #604619",
"a c #614719",
"s c #624819",
"d c #624919",
"f c #634919",
"g c #63491A",
"h c #644A1A",
"j c #644B1A",
"k c #654B1A",
"l c #664C1A",
"z c #674C1A",
"x c #674D1A",
"c c #674D1B",
"v c None",
/* pixels */
"vvvvvvvvvvvvvvvvvvvvvvvvvvvvvvvv",
"vvvvvvvvvvvvvvvvvvvvvvvvvvvvvvvv",
"vvvvvvvvvvvvvvvvvvvvvvvvvvvvvvvv",
"vvvvvvvvvvvvvvkkhvvvvvvvvvvvvvvv",
"vvvvvvvvvvvvvl   hvvvvvvvvvvvvvv",
"vvvvvvvvvlzxvx   kvhgvvvvvvvvvvv",
"vvvvvvvvz   c     k  fvvvvvvvvvv",
"vvvvvvvvx             svvvvvvvvv",
"vvvvvklx              dvvvvvvvvv",
"vvvvj                  apyvvvvvv",
"vvvvk                     tvvvvv",
"vvvvvl                    yvvvvv",
"vvvvvvl                  ivvvvvv",
"vvvvhk                  pvvvvvvv",
"vvvg                     yrvvvvv",
"vvvd                       evvvv",
"vvvs                        0vvv",
"vvvvd                       evvv",
"vvva                       qvvvv",
"vvp                       8vvvvv",
"vvu                        6vvvv",
"vvr                         5vvv",
"vvw                         5vvv",
"vvv7q                      3vvvv",
"vvvvv9                    1vvvvv",
"vvvvv4   2      &     =-;:vvvvvv",
"vvvvvv,<>v*   @%vX   +vvvvvvvvvv",
"vvvvvvvvvvv$#Ovvvv..ovvvvvvvvvvv",
"vvvvvvvvvvvvvvvvvvvvvvvvvvvvvvvv",
"vvvvvvvvvvvvvvvvvvvvvvvvvvvvvvvv",
"vvvvvvvvvvvvvvvvvvvvvvvvvvvvvvvv",
"vvvvvvvvvvvvvvvvvvvvvvvvvvvvvvvv"
};
