/* XPM */
static char *result[] = {
/* columns rows colors chars-per-pixel */
"32 32 242 2 ",
"   c #523215",
".  c #543315",
"X  c #543415",
"o  c #563515",
"O  c #563615",
"+  c #573715",
"@  c #583615",
"#  c #583715",
"$  c #553815",
"%  c #553816",
"&  c #593B15",
"*  c #583A16",
"=  c #593A16",
"-  c #593B16",
";  c #593D16",
":  c #5A3D16",
">  c #5B3D16",
",  c #5B3E16",
"<  c #5A3F17",
"1  c #5B3F17",
"2  c #5B4017",
"3  c #5C4017",
"4  c #5C4217",
"5  c #5C4317",
"6  c #5D4317",
"7  c #5D4417",
"8  c #5D4218",
"9  c #5C4318",
"0  c #5D4318",
"q  c #5D4319",
"w  c #5D4418",
"e  c #5E4419",
"r  c #5E4519",
"t  c #5F4519",
"y  c #5F4619",
"u  c #565112",
"i  c #575112",
"p  c #575212",
"a  c #575213",
"s  c #535715",
"d  c #585213",
"f  c #535815",
"g  c #545815",
"h  c #555815",
"j  c #545915",
"k  c #555915",
"l  c #545816",
"z  c #555816",
"x  c #545916",
"c  c #555916",
"v  c #555917",
"b  c #565916",
"n  c #565917",
"m  c #555A17",
"M  c #565A16",
"N  c #575B16",
"B  c #565A17",
"V  c #575A17",
"C  c #575B17",
"Z  c #575C17",
"A  c #585B17",
"S  c #585C17",
"D  c #595C17",
"F  c #585D17",
"G  c #595D17",
"H  c #5A5E17",
"J  c #5B5E17",
"K  c #5C5E17",
"L  c #595C18",
"P  c #5A5D18",
"I  c #595E18",
"U  c #5B5E18",
"Y  c #5C5F18",
"T  c #654712",
"R  c #604519",
"E  c #604619",
"W  c #614719",
"Q  c #624819",
"!  c #624919",
"~  c #634919",
"^  c #63491A",
"/  c #644A1A",
"(  c #644B1A",
")  c #654B1A",
"_  c #664C1A",
"`  c #674C1A",
"'  c #674D1A",
"]  c #674D1B",
"[  c #625819",
"{  c #635919",
"}  c #655B19",
"|  c #665C19",
" . c #675D1A",
".. c #685E1A",
"X. c #705013",
"o. c #745515",
"O. c #765516",
"+. c #775816",
"@. c #795916",
"#. c #7E5E17",
"$. c #5D6018",
"%. c #606218",
"&. c #606318",
"*. c #616318",
"=. c #626418",
"-. c #626519",
";. c #636519",
":. c #636619",
">. c #67691A",
",. c #67691B",
"<. c #676A1A",
"1. c #68691B",
"2. c #686B1A",
"3. c #686A1B",
"4. c #696C1A",
"5. c #6A6C1A",
"6. c #6A6D1B",
"7. c #6B6D1B",
"8. c #6B6E1B",
"9. c #6C6E1B",
"0. c #6C6F1B",
"q. c #6D6F1B",
"w. c #6E6F1B",
"e. c #6C6D1D",
"r. c #6C6E1D",
"t. c #6D6F1D",
"y. c #766916",
"u. c #776916",
"i. c #6D701B",
"p. c #6E701B",
"a. c #6E711B",
"s. c #6E711C",
"d. c #6F711C",
"f. c #6F721C",
"g. c #70711B",
"h. c #70721C",
"j. c #70731C",
"k. c #71731C",
"l. c #72731D",
"z. c #73751E",
"x. c #74761D",
"c. c #75761D",
"v. c #75771D",
"b. c #74751E",
"n. c #75751E",
"m. c #76761E",
"M. c #77761E",
"N. c #76771E",
"B. c #77771E",
"V. c #7E731D",
"C. c #7F731D",
"Z. c #7F731E",
"A. c #78771F",
"S. c #7F741E",
"D. c #77781E",
"F. c #6F6F21",
"G. c #6F7021",
"H. c #707021",
"J. c #777721",
"K. c #767522",
"L. c #767622",
"P. c #777622",
"I. c #777722",
"U. c #787722",
"Y. c #787821",
"T. c #797822",
"R. c #797A23",
"E. c #7B7A23",
"W. c #7D7C22",
"Q. c #7D7D22",
"!. c #7E7D22",
"~. c #7F7E22",
"^. c #7F7E23",
"/. c #7F7F23",
"(. c #7B7B25",
"). c #797928",
"_. c #7A7928",
"`. c #7A7A28",
"'. c #7B7A28",
"]. c #7C7A29",
"[. c #9C0D03",
"{. c #A70200",
"}. c #A70201",
"|. c #A60401",
" X c #A70401",
".X c #A50601",
"XX c #A70502",
"oX c #A50702",
"OX c #A80100",
"+X c #A80200",
"@X c #A00A03",
"#X c #A40802",
"$X c #A40902",
"%X c #A00D02",
"&X c #A50D05",
"*X c #A50E05",
"=X c #A01305",
"-X c #A31205",
";X c #A41106",
":X c #9B2B0C",
">X c #8D5C19",
",X c #80741E",
"<X c #906A28",
"1X c #916B28",
"2X c #926C29",
"3X c #926D29",
"4X c #936E29",
"5X c #807F23",
"6X c #907025",
"7X c #818023",
"8X c #828123",
"9X c #838123",
"0X c #838223",
"qX c #838224",
"wX c #848224",
"eX c #848324",
"rX c #878429",
"tX c #87842D",
"yX c #888429",
"uX c #888529",
"iX c #89862C",
"pX c #89872C",
"aX c #89862D",
"sX c #89872D",
"dX c #8A862D",
"fX c #8A872D",
"gX c #88842E",
"hX c #89852F",
"jX c #888331",
"kX c #888431",
"lX c #898432",
"zX c #898532",
"xX c #8A8532",
"cX c #8A8632",
"vX c #8B8632",
"bX c #8C8733",
"nX c #8D8733",
"mX c #8D8833",
"MX c #8E8833",
"NX c #8E8933",
"BX c #8F8934",
"VX c None",
/* pixels */
"VXVXVXVXVXVXVXVXVXVXVXVXVXVXVXVXVXVXVXVXVXVXVXVXVXVXVXVXVXVXVXVX",
"VXVXVXVXVXVXVXVXVXVXVXVXVXVXVXVXVXVXVXVXVXVXVXVXVXVXVXVXVXVXVXVX",
"VXVXVXVXVXVXVXVXVXVXVXVXVXVXVXVXVXVXVXVXVXVXVXVXVXVXVXVXVXVXVXVX",
"VXVXVXVXVXVXVXVXVXVXVXVXVXVX) ) / VXVXVXVXVXVXVXVXVXVXVXVXVXVXVX",
"VXVXVXVXVXVXVXVXVXVXVXVXVX_ bXbXbX/ VXVXVXVXVXVXVXVXVXVXVXVXVXVX",
"VXVXVXVXVXVXVXVXVX_ ` ' VX' mXbXbX) VX/ ^ VXVXVXVXVXVXVXVXVXVXVX",
"VXVXVXVXVXVXVXVX` mXmXMX] qXmXmX8X8X) P.L.~ VXVXVXVXVXVXVXVXVXVX",
"VXVXVXVXVXVXVXVX' MXNXNXwXwXqXqX0X8XU.I.L.K.Q VXVXVXVXVXVXVXVXVX",
"VXVXVXVXVX) _ ' qXwXwXeXeXeXwXwXOX9XT.U.P.L.! VXVXVXVXVXVXVXVXVX",
"VXVXVXVX( bXnXmXNXaXpXoXeXBXNX4X+X-X8XU.I. .| W E t VXVXVXVXVXVX",
"VXVXVXVX) bXnXmXNXuX6X{.|.BXBXNX4X0X8Xb... .| t.r.e.r VXVXVXVXVX",
"VXVXVXVXVX_ mXmXyXuXx.#.x.c.BXNXNX0XN.n.z.l.| t.r.e.t VXVXVXVXVX",
"VXVXVXVXVXVX_ 0XrXy.u.fXfXv.N.NXMXD.B.m.7X5X~.} r.R VXVXVXVXVXVX",
"VXVXVXVX/ ) 8X9XqXy.eXpXsXsXN.N.A.B.B.bXvXxX~.p.E VXVXVXVXVXVXVX",
"VXVXVX^ tXgXhXmX0XqX}.iXdXdX,XS.C.M.N.vXvXxXg.w.0.t e VXVXVXVXVX",
"VXVXVX! xXvXbXbX8X>XOXOXqXS.Z.C.V.bX*XvXxXj.a.0.9.8.6.w VXVXVXVX",
"VXVXVXQ xXvXvXk.k.mX3XmX0X9X9XV.bX2X X:X^.~.!.0.8.8.6.k 9 VXVXVX",
"VXVXVXVX! Y.E.h.k.bXbX5.8X8X8X8XbXvX1X/.~.!.Q.9.8.7.k h w VXVXVX",
"VXVXVXW Y.(.R.cXvXvX4.2.&XbXbX7X7X5X/.~.lXkXW.8.@X[ x 0 VXVXVXVX",
"VXVXE 3.J.J.=XxXxXcX<.o. XXXvXf.5X^.p.lXkXjX9.+.%X[.7 VXVXVXVXVX",
"VXVXy 1.3.O.$X;XzXs.>.<.<XxXd.d.a.p.i.kXjX9.8.7.T j s 5 VXVXVXVX",
"VXVXe G.H.1.X.=.i.p.p.p.p.p.| p.i..Xq.C V 8.6.c j g f s 4 VXVXVX",
"VXVXq F.H.,.*.0.0.q.q.q.q.i.H H @.{.#Xd a n v c K J J J 4 VXVXVX",
"VXVXVX6 0 %.&.`.`.'.$.0.0.I G F 9.+.a p i m c z J J J 2 VXVXVXVX",
"VXVXVXVXVX8 ].)._.`.Y { { D D Z { p i u :.:.z l J J < VXVXVXVXVX",
"VXVXVXVXVX3 ).).).1 U P L S A C % B M :.;.-.* = - ; VXVXVXVXVXVX",
"VXVXVXVXVXVX> , : VX& G S N + $ VX. b -.-.O VXVXVXVXVXVXVXVXVXVX",
"VXVXVXVXVXVXVXVXVXVXVX# @ o VXVXVXVX    X VXVXVXVXVXVXVXVXVXVXVX",
"VXVXVXVXVXVXVXVXVXVXVXVXVXVXVXVXVXVXVXVXVXVXVXVXVXVXVXVXVXVXVXVX",
"VXVXVXVXVXVXVXVXVXVXVXVXVXVXVXVXVXVXVXVXVXVXVXVXVXVXVXVXVXVXVXVX",
"VXVXVXVXVXVXVXVXVXVXVXVXVXVXVXVXVXVXVXVXVXVXVXVXVXVXVXVXVXVXVXVX",
"VXVXVXVXVXVXVXVXVXVXVXVXVXVXVXVXVXVXVXVXVXVXVXVXVXVXVXVXVXVXVXVX"
};
