/* XPM */
static char *result[] = {
/* columns rows colors chars-per-pixel */
"32 32 5 1 ",
"  c #333C24",
". c #586335",
"X c #7F8E44",
"o c #ADB834",
"O c None",
/* pixels */
" oXXXXXXXXXXXXXXXXXXXXXXXXXXXXXX",
" .XXXXXXXXXXXXXXXXXXXXXXXXXXXXXX",
" oXXXXXXXXXXXXXXXXXXXXXXXXXXXXXX",
" XXXXXXXXXXXXXXXXXXXXXXXXXXXXXXX",
" .XXXXXXXXXXXXXXXXXXXXXXXXXXXXXX",
"  XXXXXXXXXXXXXXXXXXXXXXXXXXXXXX",
" oXXXXXXXXXXXXXXXXXXXXXXXXXXXXXX",
" oXXXXXXXXXXXXXXXXXXXXXXXXXXXXXX",
" XXXXXXXXXXXXXXXXXXXXXXXXXXXXXXX",
" XXXXXXXXXXXXXXXXXXXXXXXXXXXXXXX",
"  XXXXXXXXXXXXXXXXXXXXXXXXXXXXXX",
" .XXXXXXXXXXXXXXXXXXXXXXXXXXXXXX",
" XXXXXXXXXXXXXXXXXXXXXXXXXXXXXXX",
" XXXXXXXXXXXXXXXXXXXXXXXXXXXXXXX",
" XXXXXXXXXXXXXXXXXXXXXXXXXXXXXXX",
" oXXXXXXXXXXXXXXXXXXXXXXXXXXXXXX",
" oXXXXXXXXXXXXXXXXXXXXXXXXXXXXXX",
" .XXXXXXXXXXXXXXXXXXXXXXXXXXXXXX",
"  XXXXXXXXXXXXXXXXXXXXXXXXXXXXXX",
" XXXXXXXXXXXXXXXXXXXXXXXXXXXXXXX",
" .XXXXXXXXXXXXXXXXXXXXXXXXXXXXXX",
" oXXXXXXXXXXXXXXXXXXXXXXXXXXXXXX",
" XXXXXXXXXXXXXXXXXXXXXXXXXXXXXXX",
" .XXXXXXXXXXXXXXXXXXXXXXXXXXXXXX",
" oXXXXXXXXXXXXXXXXXXXXXXXXXXXXXX",
"  XXXXXXXXXXXXXXXXXXXXXXXXXXXXXX",
" XXXXXXXXXXXXXXXXXXXXXXXXXXXXXXX",
" .XXXXXXXXXXXXXXXXXXXXXXXXXXXXXX",
" oXXXXXXXXXXXXXXXXXXXXXXXXXXXXXX",
" oXXXXXXXXXXXXXXXXXXXXXXXXXXXXXX",
"O o.XoXXo.ooXXoXXoooXX.XoX..Xoo.",
"OO                              "
};
