/* XPM */
static char *result[] = {
/* columns rows colors chars-per-pixel */
"32 32 5 1 ",
"  c #7F8E44",
". c #586335",
"X c #333C24",
"o c #ADB834",
"O c white",
/* pixels */
"                              .X",
"                               X",
"                              oX",
"                              .X",
"                              oX",
"                               X",
"                              .X",
"                              XX",
"                              oX",
"                              oX",
"                               X",
"                               X",
"                              XX",
"                              .X",
"                               X",
"                               X",
"                               X",
"                              oX",
"                              oX",
"                              .X",
"                              XX",
"                               X",
"                              .X",
"                              oX",
"                               X",
"                               X",
"                              .X",
"                              oX",
"                              oX",
"                              XX",
"                               X",
"                              .X"
};
