/* XPM */
static char *result[] = {
/* columns rows colors chars-per-pixel */
"32 32 5 1 ",
"  c #333C24",
". c #586335",
"X c #7F8E44",
"o c #ADB834",
"O c None",
/* pixels */
"OO                              ",
"O o.Xo. Xo.X .ooXX . XXoo .Xo.oX",
" oXXXXXXXXXXXXXXXXXXXXXXXXXXXXXX",
" .XXXXXXXXXXXXXXXXXXXXXXXXXXXXXX",
"  XXXXXXXXXXXXXXXXXXXXXXXXXXXXXX",
" oXXXXXXXXXXXXXXXXXXXXXXXXXXXXXX",
" XXXXXXXXXXXXXXXXXXXXXXXXXXXXXXX",
" XXXXXXXXXXXXXXXXXXXXXXXXXXXXXXX",
" oXXXXXXXXXXXXXXXXXXXXXXXXXXXXXX",
" .XXXXXXXXXXXXXXXXXXXXXXXXXXXXXX",
" oXXXXXXXXXXXXXXXXXXXXXXXXXXXXXX",
" oXXXXXXXXXXXXXXXXXXXXXXXXXXXXXX",
" XXXXXXXXXXXXXXXXXXXXXXXXXXXXXXX",
" XXXXXXXXXXXXXXXXXXXXXXXXXXXXXXX",
" oXXXXXXXXXXXXXXXXXXXXXXXXXXXXXX",
" XXXXXXXXXXXXXXXXXXXXXXXXXXXXXXX",
"  XXXXXXXXXXXXXXXXXXXXXXXXXXXXXX",
" oXXXXXXXXXXXXXXXXXXXXXXXXXXXXXX",
" oXXXXXXXXXXXXXXXXXXXXXXXXXXXXXX",
" oXXXXXXXXXXXXXXXXXXXXXXXXXXXXXX",
" XXXXXXXXXXXXXXXXXXXXXXXXXXXXXXX",
" XXXXXXXXXXXXXXXXXXXXXXXXXXXXXXX",
" .XXXXXXXXXXXXXXXXXXXXXXXXXXXXXX",
" XXXXXXXXXXXXXXXXXXXXXXXXXXXXXXX",
" oXXXXXXXXXXXXXXXXXXXXXXXXXXXXXX",
" XXXXXXXXXXXXXXXXXXXXXXXXXXXXXXX",
" .XXXXXXXXXXXXXXXXXXXXXXXXXXXXXX",
" .XXXXXXXXXXXXXXXXXXXXXXXXXXXXXX",
" XXXXXXXXXXXXXXXXXXXXXXXXXXXXXXX",
" oXXXXXXXXXXXXXXXXXXXXXXXXXXXXXX",
" oXXXXXXXXXXXXXXXXXXXXXXXXXXXXXX",
" .XXXXXXXXXXXXXXXXXXXXXXXXXXXXXX"
};
