/* XPM */
static char *_f5ea6913a9545118bf28207c6b8a485LYShRB44roOu2rOk[] = {
/* columns rows colors chars-per-pixel */
"32 32 9 1 ",
"  c None",
". c #180A01",
"X c #391E0B",
"o c #4C2D17",
"O c #613D24",
"+ c #8D5524",
"@ c #A87037",
"# c #C68642",
"$ c #FFCD94",
/* pixels */
"                                ",
"                                ",
"                                ",
"                                ",
"                                ",
"                                ",
"                                ",
"                                ",
"                                ",
"            XXX XXX             ",
"           X#$XX#+X             ",
"           X######X             ",
"          X####@@#X             ",
"          X####..#X             ",
"          XOO#####X             ",
"          XOO#####$X            ",
"          XOO####@#$X           ",
"           X+++@@###$X          ",
"           X########@X          ",
"           X########@X          ",
"           X#######@@X          ",
"           XXX@XX#@ooX          ",
"                                ",
"                                ",
"                                ",
"                                ",
"                                ",
"                                ",
"                                ",
"                                ",
"                                ",
"                                "
};
