/* XPM */
static char *result[] = {
/* columns rows colors chars-per-pixel */
"32 32 214 2 ",
"   c #523215",
".  c #543315",
"X  c #543415",
"o  c #563515",
"O  c #563615",
"+  c #573715",
"@  c #583615",
"#  c #583715",
"$  c #553815",
"%  c #553816",
"&  c #593B15",
"*  c #583A16",
"=  c #593A16",
"-  c #593B16",
";  c #593D16",
":  c #5A3D16",
">  c #5B3D16",
",  c #5B3E16",
"<  c #5A3F17",
"1  c #5B3F17",
"2  c #5B4017",
"3  c #5C4017",
"4  c #5C4217",
"5  c #5C4317",
"6  c #5D4317",
"7  c #5D4417",
"8  c #5D4218",
"9  c #5C4318",
"0  c #5D4318",
"q  c #5D4319",
"w  c #5D4418",
"e  c #5E4419",
"r  c #5E4519",
"t  c #5F4519",
"y  c #5F4619",
"u  c #565112",
"i  c #575112",
"p  c #575212",
"a  c #575213",
"s  c #535715",
"d  c #585213",
"f  c #535815",
"g  c #545815",
"h  c #555815",
"j  c #545915",
"k  c #555915",
"l  c #545816",
"z  c #555816",
"x  c #545916",
"c  c #555916",
"v  c #555917",
"b  c #565916",
"n  c #565917",
"m  c #555A17",
"M  c #565A16",
"N  c #575B16",
"B  c #565A17",
"V  c #575A17",
"C  c #575B17",
"Z  c #575C17",
"A  c #585B17",
"S  c #585C17",
"D  c #595C17",
"F  c #585D17",
"G  c #595D17",
"H  c #5A5E17",
"J  c #5B5E17",
"K  c #5C5E17",
"L  c #595C18",
"P  c #5A5D18",
"I  c #595E18",
"U  c #5B5E18",
"Y  c #5C5F18",
"T  c #604519",
"R  c #604619",
"E  c #614719",
"W  c #624819",
"Q  c #624919",
"!  c #634919",
"~  c #63491A",
"^  c #644A1A",
"/  c #644B1A",
"(  c #654B1A",
")  c #664C1A",
"_  c #674C1A",
"`  c #674D1A",
"'  c #674D1B",
"]  c #625819",
"[  c #635919",
"{  c #655B19",
"}  c #665C19",
"|  c #675D1A",
" . c #685E1A",
".. c #5D6018",
"X. c #606218",
"o. c #606318",
"O. c #616318",
"+. c #626418",
"@. c #626519",
"#. c #636519",
"$. c #636619",
"%. c #67691A",
"&. c #67691B",
"*. c #676A1A",
"=. c #68691B",
"-. c #686B1A",
";. c #686A1B",
":. c #696C1A",
">. c #6A6C1A",
",. c #6A6D1B",
"<. c #6B6D1B",
"1. c #6B6E1B",
"2. c #6C6E1B",
"3. c #6C6F1B",
"4. c #6D6F1B",
"5. c #6E6F1B",
"6. c #6C6D1D",
"7. c #6C6E1D",
"8. c #6D6F1D",
"9. c #766916",
"0. c #776916",
"q. c #6D701B",
"w. c #6E701B",
"e. c #6E711B",
"r. c #6E711C",
"t. c #6F711C",
"y. c #6F721C",
"u. c #70711B",
"i. c #70721C",
"p. c #70731C",
"a. c #71731C",
"s. c #72731D",
"d. c #73751E",
"f. c #74761D",
"g. c #75761D",
"h. c #75771D",
"j. c #74751E",
"k. c #75751E",
"l. c #76761E",
"z. c #77761E",
"x. c #76771E",
"c. c #77771E",
"v. c #7E731D",
"b. c #7F731D",
"n. c #7F731E",
"m. c #78771F",
"M. c #7F741E",
"N. c #77781E",
"B. c #6F6F21",
"V. c #6F7021",
"C. c #707021",
"Z. c #777721",
"A. c #767522",
"S. c #767622",
"D. c #777622",
"F. c #777722",
"G. c #787722",
"H. c #787821",
"J. c #797822",
"K. c #797A23",
"L. c #7B7A23",
"P. c #7D7C22",
"I. c #7D7D22",
"U. c #7E7D22",
"Y. c #7F7E22",
"T. c #7F7E23",
"R. c #7F7F23",
"E. c #7B7B25",
"W. c #797928",
"Q. c #7A7928",
"!. c #7A7A28",
"~. c #7B7A28",
"^. c #7C7A29",
"/. c #A70100",
"(. c #A80000",
"). c #A80100",
"_. c #A81400",
"`. c #80741E",
"'. c #807F23",
"]. c #A7A001",
"[. c #A8A100",
"{. c #818023",
"}. c #828123",
"|. c #838123",
" X c #838223",
".X c #838224",
"XX c #848224",
"oX c #848324",
"OX c #878429",
"+X c #87842D",
"@X c #888429",
"#X c #888529",
"$X c #89862C",
"%X c #89872C",
"&X c #89862D",
"*X c #89872D",
"=X c #8A862D",
"-X c #8A872D",
";X c #88842E",
":X c #89852F",
">X c #888331",
",X c #888431",
"<X c #898432",
"1X c #898532",
"2X c #8A8532",
"3X c #8A8632",
"4X c #8B8632",
"5X c #8C8733",
"6X c #8D8733",
"7X c #8D8833",
"8X c #8E8833",
"9X c #8E8933",
"0X c #8F8934",
"qX c None",
/* pixels */
"qXqXqXqXqXqXqXqXqXqXqXqXqXqXqXqXqXqXqXqXqXqXqXqXqXqXqXqXqXqXqXqX",
"qXqXqXqXqXqXqXqXqXqXqXqXqXqXqXqXqXqXqXqXqXqXqXqXqXqXqXqXqXqXqXqX",
"qXqXqXqXqXqXqXqXqXqXqXqXqXqXqXqXqXqXqXqXqXqXqXqXqXqXqXqXqXqXqXqX",
"qXqXqXqXqXqXqXqXqXqXqXqXqXqX( ( ^ qXqXqXqXqXqXqXqXqXqXqXqXqXqXqX",
"qXqXqXqXqXqXqXqXqXqXqXqXqX) 5X5X5X^ qXqXqXqXqXqXqXqXqXqXqXqXqXqX",
"qXqXqXqXqXqXqXqXqX) _ ` qX` 7X5X5X( qX^ ~ qXqXqXqXqXqXqXqXqXqXqX",
"qXqXqXqXqXqXqXqX_ 7X7X8X' .X7X7X}.}.( D.S.! qXqXqXqXqXqXqXqXqXqX",
"qXqXqXqXqXqXqXqX` 8X9X9XXXXX.X.X X}.G.F.S.A.W qXqXqXqXqXqXqXqXqX",
"qXqXqXqXqX( ) ` .XXXXXoXoXoXXXXX).|.J.G.D.S.Q qXqXqXqXqXqXqXqXqX",
"qXqXqXqX/ 5X6X7X9X&X%X/.oX0X9X).[.).}.G.F.| } E R t qXqXqXqXqXqX",
"qXqXqXqX( 5X6X7X9X#X_.[.(.0X0X9X). X}.j. .| } 8.7.6.r qXqXqXqXqX",
"qXqXqXqXqX) 7X7X@X#Xf.(.f.g.0X9X9X Xx.k.d.s.} 8.7.6.t qXqXqXqXqX",
"qXqXqXqXqXqX)  XOX9.0.-X-Xh.x.9X8XN.c.l.{.'.Y.{ 7.T qXqXqXqXqXqX",
"qXqXqXqX^ ( }.|..X9.oX%X*X*Xx.x.m.c.c.5X4X2XY.w.R qXqXqXqXqXqXqX",
"qXqXqX~ +X;X:X7X X.X).$X=X=X`.M.b.z.x.4X4X2Xu.5.3.t e qXqXqXqXqX",
"qXqXqXQ 2X4X5X5X}.).].)..XM.n.b.v.5X).4X2Xp.e.3.2.1.,.w qXqXqXqX",
"qXqXqXW 2X4X4Xa.a.7X).7X X|.|.v.5X).[.(.T.Y.U.3.1.1.,.k 9 qXqXqX",
"qXqXqXqXQ H.L.i.a.5X5X>.}.}.}.}.5X4X).R.Y.U.I.2.1.<.k h w qXqXqX",
"qXqXqXE H.E.K.3X4X4X:.-.).5X5X{.{.'.R.Y.<X,XP.1./.] x 0 qXqXqXqX",
"qXqXR ;.Z.Z.).2X2X3X*.(.[.).4Xy.'.T.w.<X,X>X2.(.[.(.7 qXqXqXqXqX",
"qXqXy =.;.(.[.).1Xr.%.*.).2Xt.t.e.w.q.,X>X2.1.<.(.j s 5 qXqXqXqX",
"qXqXe V.C.=.(.+.q.w.w.w.w.w.} w.q./.4.C V 1.,.c j g f s 4 qXqXqX",
"qXqXq B.C.&.O.3.3.4.4.4.4.q.H H (.[.(.d a n v c K J J J 4 qXqXqX",
"qXqXqX6 0 X.o.!.!.~...3.3.I G F 2.(.a p i m c z J J J 2 qXqXqXqX",
"qXqXqXqXqX8 ^.W.Q.!.Y [ [ D D Z [ p i u $.$.z l J J < qXqXqXqXqX",
"qXqXqXqXqX3 W.W.W.1 U P L S A C % B M $.#.@.* = - ; qXqXqXqXqXqX",
"qXqXqXqXqXqX> , : qX& G S N + $ qX. b @.@.O qXqXqXqXqXqXqXqXqXqX",
"qXqXqXqXqXqXqXqXqXqXqX# @ o qXqXqXqX    X qXqXqXqXqXqXqXqXqXqXqX",
"qXqXqXqXqXqXqXqXqXqXqXqXqXqXqXqXqXqXqXqXqXqXqXqXqXqXqXqXqXqXqXqX",
"qXqXqXqXqXqXqXqXqXqXqXqXqXqXqXqXqXqXqXqXqXqXqXqXqXqXqXqXqXqXqXqX",
"qXqXqXqXqXqXqXqXqXqXqXqXqXqXqXqXqXqXqXqXqXqXqXqXqXqXqXqXqXqXqXqX",
"qXqXqXqXqXqXqXqXqXqXqXqXqXqXqXqXqXqXqXqXqXqXqXqXqXqXqXqXqXqXqXqX"
};
