/* XPM */
static char *result[] = {
/* columns rows colors chars-per-pixel */
"32 32 237 2 ",
"   c #523215",
".  c #543315",
"X  c #543415",
"o  c #563515",
"O  c #563615",
"+  c #573715",
"@  c #583615",
"#  c #583715",
"$  c #553815",
"%  c #553816",
"&  c #593B15",
"*  c #583A16",
"=  c #593A16",
"-  c #593B16",
";  c #593D16",
":  c #5A3D16",
">  c #5B3D16",
",  c #5B3E16",
"<  c #5A3F17",
"1  c #5B3F17",
"2  c #5B4017",
"3  c #5C4017",
"4  c #5C4217",
"5  c #5C4317",
"6  c #5D4317",
"7  c #5D4417",
"8  c #5D4218",
"9  c #5C4318",
"0  c #5D4318",
"q  c #5D4319",
"w  c #5D4418",
"e  c #5E4419",
"r  c #5E4519",
"t  c #5F4519",
"y  c #5F4619",
"u  c #565112",
"i  c #575112",
"p  c #575212",
"a  c #575213",
"s  c #535715",
"d  c #585213",
"f  c #535815",
"g  c #545815",
"h  c #555815",
"j  c #545915",
"k  c #555915",
"l  c #545816",
"z  c #555816",
"x  c #545916",
"c  c #555916",
"v  c #555917",
"b  c #565916",
"n  c #565917",
"m  c #555A17",
"M  c #565A16",
"N  c #575B16",
"B  c #565A17",
"V  c #575A17",
"C  c #575B17",
"Z  c #575C17",
"A  c #585B17",
"S  c #585C17",
"D  c #595C17",
"F  c #585D17",
"G  c #595D17",
"H  c #5A5E17",
"J  c #5B5E17",
"K  c #5C5E17",
"L  c #595C18",
"P  c #5A5D18",
"I  c #595E18",
"U  c #5B5E18",
"Y  c #5C5F18",
"T  c #654712",
"R  c #604519",
"E  c #604619",
"W  c #614719",
"Q  c #624819",
"!  c #624919",
"~  c #634919",
"^  c #63491A",
"/  c #644A1A",
"(  c #644B1A",
")  c #654B1A",
"_  c #664C1A",
"`  c #674C1A",
"'  c #674D1A",
"]  c #674D1B",
"[  c #714714",
"{  c #625819",
"}  c #635919",
"|  c #655B19",
" . c #665C19",
".. c #675D1A",
"X. c #685E1A",
"o. c #785816",
"O. c #795916",
"+. c #7E5E17",
"@. c #5D6018",
"#. c #606218",
"$. c #606318",
"%. c #616318",
"&. c #626418",
"*. c #626519",
"=. c #636519",
"-. c #636619",
";. c #67691A",
":. c #67691B",
">. c #676A1A",
",. c #68691B",
"<. c #686B1A",
"1. c #686A1B",
"2. c #696C1A",
"3. c #6A6C1A",
"4. c #6A6D1B",
"5. c #6B6D1B",
"6. c #6B6E1B",
"7. c #6C6E1B",
"8. c #6C6F1B",
"9. c #6D6F1B",
"0. c #6E6F1B",
"q. c #6C6D1D",
"w. c #6C6E1D",
"e. c #6D6F1D",
"r. c #766916",
"t. c #776916",
"y. c #6D701B",
"u. c #6E701B",
"i. c #6E711B",
"p. c #6E711C",
"a. c #6F711C",
"s. c #6F721C",
"d. c #70711B",
"f. c #70721C",
"g. c #70731C",
"h. c #71731C",
"j. c #72731D",
"k. c #73751E",
"l. c #74761D",
"z. c #75761D",
"x. c #75771D",
"c. c #74751E",
"v. c #75751E",
"b. c #76761E",
"n. c #77761E",
"m. c #76771E",
"M. c #77771E",
"N. c #7E731D",
"B. c #7F731D",
"V. c #7F731E",
"C. c #78771F",
"Z. c #7F741E",
"A. c #77781E",
"S. c #6F6F21",
"D. c #6F7021",
"F. c #707021",
"G. c #777721",
"H. c #767522",
"J. c #767622",
"K. c #777622",
"L. c #777722",
"P. c #787722",
"I. c #787821",
"U. c #797822",
"Y. c #797A23",
"T. c #7B7A23",
"R. c #7D7C22",
"E. c #7D7D22",
"W. c #7E7D22",
"Q. c #7F7E22",
"!. c #7F7E23",
"~. c #7F7F23",
"^. c #7B7B25",
"/. c #797928",
"(. c #7A7928",
"). c #7A7A28",
"_. c #7B7A28",
"`. c #7C7A29",
"'. c #A70200",
"]. c #A70300",
"[. c #A20702",
"{. c #A80301",
"}. c #A20802",
"|. c #A20902",
" X c #A30902",
".X c #A40902",
"XX c #A50902",
"oX c #A40A02",
"OX c #A60B03",
"+X c #A60A04",
"@X c #A70B04",
"#X c #A60C04",
"$X c #A70C04",
"%X c #83611B",
"&X c #88661C",
"*X c #8A681C",
"=X c #8A681D",
"-X c #8B681D",
";X c #80741E",
":X c #8F6A28",
">X c #916B28",
",X c #926C29",
"<X c #936D29",
"1X c #807F23",
"2X c #818023",
"3X c #828123",
"4X c #838123",
"5X c #838223",
"6X c #838224",
"7X c #848224",
"8X c #848324",
"9X c #878429",
"0X c #87842D",
"qX c #888429",
"wX c #888529",
"eX c #89862C",
"rX c #89872C",
"tX c #89862D",
"yX c #89872D",
"uX c #8A862D",
"iX c #8A872D",
"pX c #88842E",
"aX c #89852F",
"sX c #888331",
"dX c #888431",
"fX c #898432",
"gX c #898532",
"hX c #8A8532",
"jX c #8A8632",
"kX c #8B8632",
"lX c #8C8733",
"zX c #8D8733",
"xX c #8D8833",
"cX c #8E8833",
"vX c #8E8933",
"bX c #8F8934",
"nX c None",
/* pixels */
"nXnXnXnXnXnXnXnXnXnXnXnXnXnXnXnXnXnXnXnXnXnXnXnXnXnXnXnXnXnXnXnX",
"nXnXnXnXnXnXnXnXnXnXnXnXnXnXnXnXnXnXnXnXnXnXnXnXnXnXnXnXnXnXnXnX",
"nXnXnXnXnXnXnXnXnXnXnXnXnXnXnXnXnXnXnXnXnXnXnXnXnXnXnXnXnXnXnXnX",
"nXnXnXnXnXnXnXnXnXnXnXnXnXnX) ) / nXnXnXnXnXnXnXnXnXnXnXnXnXnXnX",
"nXnXnXnXnXnXnXnXnXnXnXnXnX_ lXlXlX/ nXnXnXnXnXnXnXnXnXnXnXnXnXnX",
"nXnXnXnXnXnXnXnXnX_ ` ' nX' xXlXlX) nX/ ^ nXnXnXnXnXnXnXnXnXnXnX",
"nXnXnXnXnXnXnXnX` xXxXcX] 6XxXxX3X3X) K.J.~ nXnXnXnXnXnXnXnXnXnX",
"nXnXnXnXnXnXnXnX' cXvXvX7X7X6X6X5X3XP.L.J.H.Q nXnXnXnXnXnXnXnXnX",
"nXnXnXnXnX) _ ' 6X7X7X8X8X8X7X7X=X4XU.P.K.J.! nXnXnXnXnXnXnXnXnX",
"nXnXnXnX( lXzXxXvXtXrX+.8XbXvX$X].*X3XP.L... .W E t nXnXnXnXnXnX",
"nXnXnXnX) lXzXxXvXwX#X'.+.bXbXvX@X5X3Xc.X... .e.w.q.r nXnXnXnXnX",
"nXnXnXnXnX_ xXxXqXwXl.XXl.z.bXvXvX5Xm.v.k.j. .e.w.q.t nXnXnXnXnX",
"nXnXnXnXnXnX_ 5X9Xr.t.iXiXx.m.vXcXA.M.b.2X1XQ.| w.R nXnXnXnXnXnX",
"nXnXnXnX/ ) 3X4X6Xr.8XrXyXyXm.m.C.M.M.lXkXhXQ.u.E nXnXnXnXnXnXnX",
"nXnXnX^ 0XpXaXxX5X6X-XeXuXuX;XZ.B.n.m.kXkXhXd.0.8.t e nXnXnXnXnX",
"nXnXnX! hXkXlXlX3XOX{.<X6XZ.V.B.N.lX,XkXhXg.i.8.7.6.4.w nXnXnXnX",
"nXnXnXQ hXkXkXh.h.xX@XxX5X4X4XN.lX#X{.&X!.Q.W.8.6.6.4.k 9 nXnXnX",
"nXnXnXnX! I.T.f.h.lXlX3.3X3X3X3XlXkX@X~.Q.W.E.7.6.5.k h w nXnXnX",
"nXnXnXW I.^.Y.jXkXkX2.<.,XlXlX2X2X1X~.Q.fXdXR.6.[ { x 0 nXnXnXnX",
"nXnXE 1.G.G.%XhXhXjX>. X{.>XkXs.1X!.u.fXdXsX7..X'.T 7 nXnXnXnXnX",
"nXnXy ,.1.|.'.:XgXp.;.>.+XhXa.a.i.u.y.dXsX7.6.5.[.j s 5 nXnXnXnX",
"nXnXe D.F.,.}.&.y.u.u.u.u.u. .u.y.O.9.C V 6.4.c j g f s 4 nXnXnX",
"nXnXq S.F.:.%.8.8.9.9.9.9.y.H H oX'.o.d a n v c K J J J 4 nXnXnX",
"nXnXnX6 0 #.$.).)._.@.8.8.I G F 7..Xa p i m c z J J J 2 nXnXnXnX",
"nXnXnXnXnX8 `./.(.).Y } } D D Z } p i u -.-.z l J J < nXnXnXnXnX",
"nXnXnXnXnX3 /././.1 U P L S A C % B M -.=.*.* = - ; nXnXnXnXnXnX",
"nXnXnXnXnXnX> , : nX& G S N + $ nX. b *.*.O nXnXnXnXnXnXnXnXnXnX",
"nXnXnXnXnXnXnXnXnXnXnX# @ o nXnXnXnX    X nXnXnXnXnXnXnXnXnXnXnX",
"nXnXnXnXnXnXnXnXnXnXnXnXnXnXnXnXnXnXnXnXnXnXnXnXnXnXnXnXnXnXnXnX",
"nXnXnXnXnXnXnXnXnXnXnXnXnXnXnXnXnXnXnXnXnXnXnXnXnXnXnXnXnXnXnXnX",
"nXnXnXnXnXnXnXnXnXnXnXnXnXnXnXnXnXnXnXnXnXnXnXnXnXnXnXnXnXnXnXnX",
"nXnXnXnXnXnXnXnXnXnXnXnXnXnXnXnXnXnXnXnXnXnXnXnXnXnXnXnXnXnXnXnX"
};
