/* XPM */
static char *ca797fd11fcf43159e267c28a9bd604ebiggNKsXPPrZfYAg[] = {
/* columns rows colors chars-per-pixel */
"32 32 8 1 ",
"  c None",
". c #181B1D",
"X c #2C231C",
"o c #613100",
"O c #F42834",
"+ c #B27536",
"@ c #CC914F",
"# c #F6DB6E",
/* pixels */
"                                ",
"                                ",
"                                ",
"                                ",
"                                ",
"                                ",
"            .     O.            ",
"           .@....O#O.           ",
"           .@@@@@@O@.           ",
"           .@@@@@@@@.           ",
"           .o@@@@@@o.           ",
"          .+++@@@@+++.          ",
"         .+@@@@@@@@@++.         ",
"         .+@@@@@@@@@@+.         ",
"        .+@@@@@@@@@@@@+.        ",
"        .@@@@@@@@@@@@@+.        ",
"        .@@@@@@@@@@@@@+.        ",
"        .@@@@@@@@@@@@@+.        ",
"        .@@@@@@@@@@@@@+.        ",
"        .+@@@@+@@+@@@++.        ",
"        .+@@@@@++@@@+++.        ",
"         .++@@@@@@@+++.         ",
"         .o+++++++++oo.         ",
"          .oo+++++ooo.          ",
"          .oooo..ooo.           ",
"           .ooo...oo.           ",
"           .oo.. .o.            ",
"            .o.  .oo            ",
"            oo.  X...           ",
"           ....                 ",
"                                ",
"                                "
};
