/* XPM */
static char *_ee2063c3f004f5996fc079fc0d413a0u0J75zMLFkBSSpUo[] = {
/* columns rows colors chars-per-pixel */
"32 32 11 1 ",
"  c None",
". c #181B1D",
"X c #2C231C",
"o c #613100",
"O c #564334",
"+ c #745B47",
"@ c #F42834",
"# c #B27536",
"$ c #927259",
"% c #CC914F",
"& c #F6DB6E",
/* pixels */
"                                ",
"                                ",
"                                ",
"                                ",
"                                ",
"                                ",
"           ..@    ...           ",
"           .@&@....o.           ",
"            #@%%%%%#            ",
"           .%%%%%%%%.           ",
"           .%..$$..%.           ",
"           .%%%$$%%%.           ",
"          .#%%%++%%%#.          ",
"         .#%#%++++%#%#.         ",
"        .#%%%#+OO+#%%%#.        ",
"        .#%%%%%##%%%%%#.        ",
"        .#%%%%%%%%%%%%#.        ",
"        .#%%%%%%%%%%%%#.        ",
"        .#%%%%%%%%%%%%#.        ",
"        .##%%%%%%%%%%%#.        ",
"        .##%%%%%%%%%%%#.        ",
"         .###%%%%%%%##.         ",
"         .oo###%%%###o.         ",
"          .ooo#####oo.          ",
"           .ooo..oooo.          ",
"           .oo...ooo.           ",
"            .o. ..oo.           ",
"            oo.  .o.            ",
"           ...X  .oo            ",
"                 ....           ",
"                                ",
"                                "
};
