/* XPM */
static char *_8048cb9133d4f79b34263a3445f9f35s4Xmgdua1IlQN7s9[] = {
/* columns rows colors chars-per-pixel */
"32 32 22 1 ",
"  c None",
". c #0E0000",
"X c #181B1D",
"o c #23100A",
"O c #27100A",
"+ c #2E180B",
"@ c #2A180E",
"# c #39190A",
"$ c #251A14",
"% c #2C1811",
"& c #32211A",
"* c #452107",
"= c #613200",
"- c #683309",
"; c #75400A",
": c #F42834",
"> c #B27536",
", c #927259",
"< c #F2C62D",
"1 c #CA8F4B",
"2 c #CC914F",
"3 c #F87C82",
/* pixels */
"                                ",
"                                ",
"                                ",
"                                ",
"                                ",
"                                ",
"       $$                       ",
"    XXX2-$:                     ",
"   X22222:<:  XXXXXXXXXXXX      ",
"  X22XX222:XXX222222222222X     ",
" X,22222222222222222222222>X    ",
" X,,22332222222222222222222>X   ",
" X,,22222222222222222222222>X   ",
"  XXXX2222222222222222222222>X  ",
"      X222222222222222222222>X  ",
"       X2222222222222>222222>X  ",
"       X>22222212222>2222222>X  ",
"        X>2222222222>222222>>X  ",
"         X>222222222>22222>>X   ",
"          X>>>>>>>>>>>222>>>X   ",
"           X;;*XXXXXX;>>>>;X    ",
"            X;.      @=;;;$     ",
"            X;.       oO;=$     ",
"            X=.        %;.      ",
"            X=.        +=.      ",
"           XX$.       &#$.      ",
"            ...        ...      ",
"                                ",
"                                ",
"                                ",
"                                ",
"                                "
};
