/* XPM */
static char *_c143d6dd5634e15a1743c650325b4db7az578ZCLKLIa3pw[] = {
/* columns rows colors chars-per-pixel */
"32 32 22 1 ",
"  c None",
". c #0E0000",
"X c #181B1D",
"o c #23100A",
"O c #27100A",
"+ c #2E180B",
"@ c #2A180E",
"# c #39190A",
"$ c #251A14",
"% c #2C1811",
"& c #32211A",
"* c #452107",
"= c #613200",
"- c #683309",
"; c #75400A",
": c #F42834",
"> c #B27536",
", c #927259",
"< c #F2C62D",
"1 c #CA8F4B",
"2 c #CC914F",
"3 c #F87C82",
/* pixels */
"                                ",
"                                ",
"                                ",
"                                ",
"                                ",
"                                ",
"                       $$       ",
"                     :$-2XXX    ",
"      XXXXXXXXXXXX  :<:22222X   ",
"     X222222222222XXX:222XX22X  ",
"    X>22222222222222222222222,X ",
"   X>22222222222222222223322,,X ",
"   X>22222222222222222222222,,X ",
"  X>2222222222222222222222XXXX  ",
"  X>222222222222222222222X      ",
"  X>222222>2222222222222X       ",
"  X>2222222>22221222222>X       ",
"  X>>222222>2222222222>X        ",
"   X>>22222>222222222>X         ",
"   X>>>222>>>>>>>>>>>X          ",
"    X;>>>>;XXXXXX*;;X           ",
"     $;;;=@      .;X            ",
"     $=;Oo       .;X            ",
"      .;%        .=X            ",
"      .=+        .=X            ",
"      .$#&       .$XX           ",
"      ...        ...            ",
"                                ",
"                                ",
"                                ",
"                                ",
"                                "
};
