/* XPM */
static char *d690c95fe81b4de18cece97bb65379500PDNkElRYWTbYMjt[] = {
/* columns rows colors chars-per-pixel */
"32 32 11 1 ",
"  c #7F8E44",
". c #586335",
"X c #ADB834",
"o c #88A3BC",
"O c #9C8BDB",
"+ c #F8F644",
"@ c #886E6A",
"# c #BDA499",
"$ c #DDCEBF",
"% c #594D4D",
"& c #E88A36",
/* pixels */
"                                ",
"                                ",
"    .                           ",
"   .X.                 o  O     ",
"                      o+oO+O    ",
"              @@@@@    o. O     ",
"            @@##$$$@   .. ..    ",
"           @#####$$$@   ...     ",
"          @########$@           ",
"          @########$$@          ",
"         @##########$@  .       ",
"         @###########@ .X.  .   ",
"         %####@#######@  . .X.  ",
"         %####@#######@    .    ",
"         %###$%@######@         ",
"      . %@##$$$%@######@        ",
"    ..@@%@###$$$%@####@% .      ",
"   . @#$@@@####$%@@#@.@%.X.     ",
"   .%###%@@.@###@%%@.X..X .     ",
"        %@.X.@#@@@.%. ..        ",
"      .  %. .@@.@@X.. X         ",
"     .X.  . X..X.%  .           ",
"       .     .. .      @@@      ",
"     &               @@###@     ",
"    &+&            @@$$####@    ",
"    .&            @$$$####@@@   ",
"   ..            %@#@.##@.@@%   ",
"    .            %@@.X.@.X.@%   ",
"                  %%. .%. X.    ",
"                                ",
"                                ",
"                                "
};
